<svg width="400" height="332" viewBox="0 0 400 332" fill="none" xmlns="http://www.w3.org/2000/svg">
<g clip-path="url(#clip0_408_205)">
<rect width="400" height="332" rx="12" fill="white"/>
<rect x="14.5" y="10.5" width="49" height="24" rx="6.5" fill="#F2F4F7"/>
<rect x="14.5" y="10.5" width="49" height="24" rx="6.5" stroke="#E4E7EC"/>
<text fill="#667085" style="white-space: pre" xml:space="preserve" font-family="Noto Sans KR" font-size="10.5" letter-spacing="0em"><tspan x="24" y="26.7">&#xc804;&#xccb4;</tspan></text>
<text fill="#98A2B3" style="white-space: pre" xml:space="preserve" font-family="Noto Sans KR" font-size="10" letter-spacing="0em"><tspan x="48" y="26.5">6</tspan></text>
<rect x="70" y="10" width="60" height="25" rx="7" fill="#ECFDF3"/>
<text fill="#027A48" style="white-space: pre" xml:space="preserve" font-family="Noto Sans KR" font-size="10.5" font-weight="bold" letter-spacing="0em"><tspan x="80" y="26.7">&#x2713; &#xc2b9;&#xc778;</tspan></text>
<text fill="#027A48" style="white-space: pre" xml:space="preserve" font-family="Noto Sans KR" font-size="10" letter-spacing="0em"><tspan x="114" y="26.5">3</tspan></text>
<rect x="136.5" y="10.5" width="81" height="24" rx="6.5" fill="#F2F4F7"/>
<rect x="136.5" y="10.5" width="81" height="24" rx="6.5" stroke="#E4E7EC"/>
<text fill="#667085" style="white-space: pre" xml:space="preserve" font-family="Noto Sans KR" font-size="10.5" letter-spacing="0em"><tspan x="146" y="26.7">&#x270e; &#xbcf4;&#xc644;&#xc694;&#xccad;</tspan></text>
<text fill="#98A2B3" style="white-space: pre" xml:space="preserve" font-family="Noto Sans KR" font-size="10" letter-spacing="0em"><tspan x="202" y="26.5">2</tspan></text>
<rect x="224.5" y="10.5" width="60" height="24" rx="6.5" fill="#F2F4F7"/>
<rect x="224.5" y="10.5" width="60" height="24" rx="6.5" stroke="#E4E7EC"/>
<text fill="#667085" style="white-space: pre" xml:space="preserve" font-family="Noto Sans KR" font-size="10.5" letter-spacing="0em"><tspan x="234" y="26.7">&#x2715; &#xbc18;&#xb824;</tspan></text>
<text fill="#98A2B3" style="white-space: pre" xml:space="preserve" font-family="Noto Sans KR" font-size="10" letter-spacing="0em"><tspan x="269" y="26.5">1</tspan></text>
<rect width="400" height="47" transform="translate(0 45)" fill="#ECFDF3"/>
<g clip-path="url(#clip1_408_205)">
<g clip-path="url(#clip2_408_205)">
<rect x="14" y="61.5" width="14" height="14" rx="4" fill="#12B76A"/>
</g>
<text fill="#027A48" style="white-space: pre" xml:space="preserve" font-family="Noto Sans KR" font-size="11" font-weight="500" letter-spacing="0em"><tspan x="34" y="72.9">&#xcd94;&#xcc9c;: &#xc2b9;&#xc778; 3&#xac74; &#xc804;&#xccb4; &#xc120;&#xd0dd;&#xb428;</tspan></text>
</g>
<rect x="277" y="55" width="109" height="27" rx="7" fill="#12B76A"/>
<text fill="white" style="white-space: pre" xml:space="preserve" font-family="Noto Sans KR" font-size="11" font-weight="bold" letter-spacing="0em"><tspan x="289" y="72.9">&#xc120;&#xd0dd; 3&#xac74; &#xc77c;&#xad04; &#xc2b9;&#xc778;</tspan></text>
<mask id="path-19-inside-1_408_205" fill="white">
<path d="M0 92H400V172H0V92Z"/>
</mask>
<path d="M0 92H400V172H0V92Z" fill="#ECFDF3"/>
<path d="M400 172V171H0V172V173H400V172Z" fill="#E4E7EC" mask="url(#path-19-inside-1_408_205)"/>
<g clip-path="url(#clip3_408_205)">
<g clip-path="url(#clip4_408_205)">
<g clip-path="url(#clip5_408_205)">
<rect x="18" y="112" width="14" height="14" rx="4" fill="#12B76A"/>
</g>
<rect x="42" y="109" width="41" height="20" rx="5" fill="#FFFAEB"/>
<text fill="#B54708" style="white-space: pre" xml:space="preserve" font-family="Noto Sans KR" font-size="12" font-weight="500" letter-spacing="0em"><tspan x="50" y="123.8">51%</tspan></text>
<g clip-path="url(#clip6_408_205)">
<text fill="#101828" style="white-space: pre" xml:space="preserve" font-family="Noto Sans KR" font-size="13" font-weight="500" letter-spacing="0em"><tspan x="93" y="117.2">&#xae40;&#xcca0;&#xc218;</tspan></text>
<text fill="#667085" style="white-space: pre" xml:space="preserve" font-family="Noto Sans KR" font-size="11" letter-spacing="0em"><tspan x="93" y="131.9">&#xd074;&#xb77c;&#xc6b0;&#xb4dc;&#xbd80;</tspan></text>
</g>
</g>
<text fill="#101828" style="white-space: pre" xml:space="preserve" font-family="Noto Sans KR" font-size="12.5" font-weight="500" letter-spacing="0em"><tspan x="331" y="124">95,000&#xc6d0;</tspan></text>
</g>
<g clip-path="url(#clip7_408_205)">
<text fill="#98A2B3" style="white-space: pre" xml:space="preserve" font-family="Noto Sans KR" font-size="11" letter-spacing="0em"><tspan x="18" y="155.4">&#xbd84;&#xb958; &#xc2e0;&#xb8b0;&#xb3c4; &#xb0ae;&#xc74c;</tspan></text>
<rect x="323" y="142" width="59" height="18" rx="5" fill="#ECFDF3"/>
<text fill="#027A48" style="white-space: pre" xml:space="preserve" font-family="Noto Sans KR" font-size="10" font-weight="500" letter-spacing="0em"><tspan x="331" y="155">&#xcd94;&#xcc9c;: &#xc2b9;&#xc778;</tspan></text>
</g>
<mask id="path-30-inside-2_408_205" fill="white">
<path d="M0 172H400V252H0V172Z"/>
</mask>
<path d="M0 172H400V252H0V172Z" fill="#ECFDF3"/>
<path d="M400 252V251H0V252V253H400V252Z" fill="#E4E7EC" mask="url(#path-30-inside-2_408_205)"/>
<g clip-path="url(#clip8_408_205)">
<g clip-path="url(#clip9_408_205)">
<g clip-path="url(#clip10_408_205)">
<rect x="18" y="192" width="14" height="14" rx="4" fill="#12B76A"/>
</g>
<rect x="42" y="189" width="41" height="20" rx="5" fill="#FFFAEB"/>
<text fill="#B54708" style="white-space: pre" xml:space="preserve" font-family="Noto Sans KR" font-size="12" font-weight="500" letter-spacing="0em"><tspan x="50" y="203.8">43%</tspan></text>
<g clip-path="url(#clip11_408_205)">
<text fill="#101828" style="white-space: pre" xml:space="preserve" font-family="Noto Sans KR" font-size="13" font-weight="500" letter-spacing="0em"><tspan x="93" y="197.2">&#xc815;&#xd558;&#xb298;</tspan></text>
<text fill="#667085" style="white-space: pre" xml:space="preserve" font-family="Noto Sans KR" font-size="11" letter-spacing="0em"><tspan x="93" y="211.9">&#xc804;&#xb7b5;&#xae30;&#xd68d;&#xbd80;</tspan></text>
</g>
</g>
<text fill="#101828" style="white-space: pre" xml:space="preserve" font-family="Noto Sans KR" font-size="12.5" font-weight="500" letter-spacing="0em"><tspan x="331" y="204">60,000&#xc6d0;</tspan></text>
</g>
<g clip-path="url(#clip12_408_205)">
<text fill="#98A2B3" style="white-space: pre" xml:space="preserve" font-family="Noto Sans KR" font-size="11" letter-spacing="0em"><tspan x="18" y="235.4">&#xc8fc;&#xb9d0; &#xacb0;&#xc81c;&#xb7;&#xc18c;&#xc561;</tspan></text>
<rect x="323" y="222" width="59" height="18" rx="5" fill="#ECFDF3"/>
<text fill="#027A48" style="white-space: pre" xml:space="preserve" font-family="Noto Sans KR" font-size="10" font-weight="500" letter-spacing="0em"><tspan x="331" y="235">&#xcd94;&#xcc9c;: &#xc2b9;&#xc778;</tspan></text>
</g>
<mask id="path-41-inside-3_408_205" fill="white">
<path d="M0 252H400V332H0V252Z"/>
</mask>
<path d="M0 252H400V332H0V252Z" fill="#ECFDF3"/>
<path d="M400 332V331H0V332V333H400V332Z" fill="#E4E7EC" mask="url(#path-41-inside-3_408_205)"/>
<g clip-path="url(#clip13_408_205)">
<g clip-path="url(#clip14_408_205)">
<g clip-path="url(#clip15_408_205)">
<rect x="18" y="272" width="14" height="14" rx="4" fill="#12B76A"/>
</g>
<rect x="42" y="269" width="41" height="20" rx="5" fill="#ECFDF3"/>
<text fill="#027A48" style="white-space: pre" xml:space="preserve" font-family="Noto Sans KR" font-size="12" font-weight="500" letter-spacing="0em"><tspan x="50" y="283.8">30%</tspan></text>
<g clip-path="url(#clip16_408_205)">
<text fill="#101828" style="white-space: pre" xml:space="preserve" font-family="Noto Sans KR" font-size="13" font-weight="500" letter-spacing="0em"><tspan x="93" y="277.2">&#xc774;&#xb3c4;&#xc724;</tspan></text>
<text fill="#667085" style="white-space: pre" xml:space="preserve" font-family="Noto Sans KR" font-size="11" letter-spacing="0em"><tspan x="93" y="291.9">&#xacf5;&#xacf5;&#xc0ac;&#xc5c5;&#xbd80;</tspan></text>
</g>
</g>
<text fill="#101828" style="white-space: pre" xml:space="preserve" font-family="Noto Sans KR" font-size="12.5" font-weight="500" letter-spacing="0em"><tspan x="331" y="284">42,000&#xc6d0;</tspan></text>
</g>
<g clip-path="url(#clip17_408_205)">
<text fill="#98A2B3" style="white-space: pre" xml:space="preserve" font-family="Noto Sans KR" font-size="11" letter-spacing="0em"><tspan x="18" y="315.4">&#xacbd;&#xbbf8;&#xd55c; &#xae08;&#xc561; &#xd3b8;&#xcc28;</tspan></text>
<rect x="323" y="302" width="59" height="18" rx="5" fill="#ECFDF3"/>
<text fill="#027A48" style="white-space: pre" xml:space="preserve" font-family="Noto Sans KR" font-size="10" font-weight="500" letter-spacing="0em"><tspan x="331" y="315">&#xcd94;&#xcc9c;: &#xc2b9;&#xc778;</tspan></text>
</g>
</g>
<rect x="0.5" y="0.5" width="399" height="331" rx="11.5" stroke="#E4E7EC"/>
<defs>
<clipPath id="clip0_408_205">
<rect width="400" height="332" rx="12" fill="white"/>
</clipPath>
<clipPath id="clip1_408_205">
<rect width="141" height="14" fill="white" transform="translate(14 61.5)"/>
</clipPath>
<clipPath id="clip2_408_205">
<rect width="14" height="14" fill="white" transform="translate(14 61.5)"/>
</clipPath>
<clipPath id="clip3_408_205">
<rect width="364" height="30" fill="white" transform="translate(18 104)"/>
</clipPath>
<clipPath id="clip4_408_205">
<rect width="126" height="30" fill="white" transform="translate(18 104)"/>
</clipPath>
<clipPath id="clip5_408_205">
<rect width="14" height="14" fill="white" transform="translate(18 112)"/>
</clipPath>
<clipPath id="clip6_408_205">
<rect width="51" height="30" fill="white" transform="translate(93 104)"/>
</clipPath>
<clipPath id="clip7_408_205">
<rect width="364" height="18" fill="white" transform="translate(18 142)"/>
</clipPath>
<clipPath id="clip8_408_205">
<rect width="364" height="30" fill="white" transform="translate(18 184)"/>
</clipPath>
<clipPath id="clip9_408_205">
<rect width="126" height="30" fill="white" transform="translate(18 184)"/>
</clipPath>
<clipPath id="clip10_408_205">
<rect width="14" height="14" fill="white" transform="translate(18 192)"/>
</clipPath>
<clipPath id="clip11_408_205">
<rect width="51" height="30" fill="white" transform="translate(93 184)"/>
</clipPath>
<clipPath id="clip12_408_205">
<rect width="364" height="18" fill="white" transform="translate(18 222)"/>
</clipPath>
<clipPath id="clip13_408_205">
<rect width="364" height="30" fill="white" transform="translate(18 264)"/>
</clipPath>
<clipPath id="clip14_408_205">
<rect width="126" height="30" fill="white" transform="translate(18 264)"/>
</clipPath>
<clipPath id="clip15_408_205">
<rect width="14" height="14" fill="white" transform="translate(18 272)"/>
</clipPath>
<clipPath id="clip16_408_205">
<rect width="51" height="30" fill="white" transform="translate(93 264)"/>
</clipPath>
<clipPath id="clip17_408_205">
<rect width="364" height="18" fill="white" transform="translate(18 302)"/>
</clipPath>
</defs>
</svg>
